<?xml version="1.0" encoding="utf-8"?>
<!-- Generator: Adobe Illustrator 26.0.1, SVG Export Plug-In . SVG Version: 6.00 Build 0)  -->
<svg version="1.1" id="Layer_1" xmlns="http://www.w3.org/2000/svg" xmlns:xlink="http://www.w3.org/1999/xlink" x="0px" y="0px"
	 viewBox="0 0 32 32" style="enable-background:new 0 0 32 32;" xml:space="preserve">
<style type="text/css">
	.st0{fill:#38A3A5;}
	.st1{opacity:0.12;}
	.st2{fill:none;stroke:#000000;stroke-width:0.25;stroke-miterlimit:10;}
	.st3{fill:url(#SVGID_1_);}
	.st4{fill:none;stroke:#E6E6E6;stroke-width:0.25;stroke-miterlimit:10;}
	.st5{fill:#FFE45E;}
	.st6{fill:none;stroke:#FFE45E;stroke-width:0.1;stroke-miterlimit:10;}
	.st7{fill:#EDBD0A;}
</style>
<circle class="st0" cx="16" cy="16" r="16"/>
<g>
	<g class="st1">
		<path d="M25.4,15.2c0-0.2,0-0.4,0-0.6c0-3.1-2.9-5.5-6.4-5.5s-6.4,2.4-6.4,5.5l0,0c-3.1,0.4-5.5,2.6-5.5,5.5
			c0,3.1,2.9,5.5,6.4,5.5c1.8,0,3.5-0.5,4.6-1.6c1.1,1.1,2.8,1.6,4.6,1.6c3.5,0,6.4-2.4,6.4-5.5C29.1,18,27.6,16.1,25.4,15.2z"/>
		<path class="st2" d="M25.4,15.2c0-0.2,0-0.4,0-0.6c0-3.1-2.9-5.5-6.4-5.5s-6.4,2.4-6.4,5.5l0,0c-3.1,0.4-5.5,2.6-5.5,5.5
			c0,3.1,2.9,5.5,6.4,5.5c1.8,0,3.5-0.5,4.6-1.6c1.1,1.1,2.8,1.6,4.6,1.6c3.5,0,6.4-2.4,6.4-5.5C29.1,18,27.6,16.1,25.4,15.2z"/>
	</g>
	<g>
		<linearGradient id="SVGID_1_" gradientUnits="userSpaceOnUse" x1="6.0952" y1="15.4078" x2="24.7003" y2="15.4078">
			<stop  offset="0.3039" style="stop-color:#FFFFFF;stop-opacity:0.8"/>
			<stop  offset="0.3585" style="stop-color:#F4F3F3;stop-opacity:0.868"/>
			<stop  offset="0.4922" style="stop-color:#F5F4F4;stop-opacity:0.8645"/>
			<stop  offset="0.6939" style="stop-color:#C6C6C6"/>
			<stop  offset="0.8854" style="stop-color:#C6C6C6"/>
		</linearGradient>
		<path class="st3" d="M24.4,13.2c0-0.2,0-0.4,0-0.6c0-3.1-2.9-5.5-6.4-5.5s-6.4,2.4-6.4,5.5l0,0c-3.1,0.4-5.5,2.6-5.5,5.5
			c0,3.1,2.9,5.5,6.4,5.5c1.8,0,3.5-0.5,4.6-1.6c1.1,1.1,2.8,1.6,4.6,1.6c3.5,0,6.4-2.4,6.4-5.5C28.1,16,26.6,14.1,24.4,13.2z"/>
		<path class="st4" d="M24.4,13.2c0-0.2,0-0.4,0-0.6c0-3.1-2.9-5.5-6.4-5.5s-6.4,2.4-6.4,5.5l0,0c-3.1,0.4-5.5,2.6-5.5,5.5
			c0,3.1,2.9,5.5,6.4,5.5c1.8,0,3.5-0.5,4.6-1.6c1.1,1.1,2.8,1.6,4.6,1.6c3.5,0,6.4-2.4,6.4-5.5C28.1,16,26.6,14.1,24.4,13.2z"/>
	</g>
</g>
<g>
	<g>
		
			<image style="overflow:visible;opacity:0.9;" width="39" height="38" xlink:href="4F596076.png"  transform="matrix(1 0 0 1 -7 -7)">
		</image>
		<g>
			<path class="st5" d="M11.3,9.1c-1.2,0.6-1.5,1.2-1.1,2.6c-1.4-0.5-2-0.2-2.6,1.1C7,11.5,6.4,11.2,5,11.7c0.5-1.4,0.2-2-1.1-2.6
				C5.2,8.5,5.5,7.9,5,6.5C6.4,7,7,6.7,7.6,5.4C8.2,6.7,8.8,7,10.2,6.5C9.8,7.9,10.1,8.5,11.3,9.1z"/>
		</g>
	</g>
	<path class="st6" d="M11.3,9.1c-1.2,0.6-1.5,1.2-1.1,2.6c-1.4-0.5-2-0.2-2.6,1.1C7,11.5,6.4,11.2,5,11.7c0.5-1.4,0.2-2-1.1-2.6
		C5.2,8.5,5.5,7.9,5,6.5C6.4,7,7,6.7,7.6,5.4C8.2,6.7,8.8,7,10.2,6.5C9.8,7.9,10.1,8.5,11.3,9.1z"/>
</g>
<g>
	
		<image style="overflow:visible;opacity:0.9;" width="34" height="34" xlink:href="4F59607A.png"  transform="matrix(1 0 0 1 -4 -5)">
	</image>
	<g>
		<circle class="st7" cx="7.6" cy="9.1" r="1.5"/>
		<circle class="st6" cx="7.6" cy="9.1" r="1.5"/>
	</g>
</g>
</svg>
