<?xml version="1.0" encoding="utf-8"?>
<!-- Generator: Adobe Illustrator 26.0.1, SVG Export Plug-In . SVG Version: 6.00 Build 0)  -->
<svg version="1.1" id="Layer_1" xmlns="http://www.w3.org/2000/svg" xmlns:xlink="http://www.w3.org/1999/xlink" x="0px" y="0px"
	 viewBox="0 0 250 100" style="enable-background:new 0 0 250 100;" xml:space="preserve">
<style type="text/css">
	.st0{fill:#2A9D8F;stroke:#2A9D8F;stroke-miterlimit:10;}
	.st1{fill:#FCA311;stroke:#FCA311;stroke-miterlimit:10;}
	.st2{fill:#ADE8F4;stroke:#ADE8F4;stroke-width:0.15;stroke-miterlimit:10;}
	.st3{fill:none;stroke:#F6FF35;stroke-width:0.5;stroke-miterlimit:10;}
	.st4{fill:#94D2BD;stroke:#94D2BD;stroke-width:0.5;stroke-miterlimit:10;}
</style>
<g>
	<path class="st0" d="M77.3,47.6L77.3,47.6c0.5,0,0.8,0.3,0.8,0.6l1.3,6.4c0.2,0.8,1.4,0.8,1.6,0l1.1-6.3c0.1-0.4,0.4-0.7,0.8-0.7
		h0.3c0.5,0,0.9,0.5,0.8,0.9l-2.4,12.6c-0.1,0.4-0.4,0.6-0.8,0.6h-0.7c-0.4,0-0.7-0.3-0.8-0.6l-1.2-5.6c-0.2-0.8-1.4-0.8-1.6,0
		l-1.2,5.7c-0.1,0.4-0.4,0.6-0.8,0.6h-0.7c-0.4,0-0.7-0.3-0.8-0.6l-2.4-12.6c-0.1-0.5,0.3-0.9,0.8-0.9h0.3c0.4,0,0.7,0.3,0.8,0.7
		l1.1,6.3c0.2,0.9,1.4,0.9,1.6,0l1.3-6.5C76.6,47.9,76.9,47.6,77.3,47.6z"/>
	<path class="st0" d="M86.3,61.5c-0.6-0.3-1-0.8-1.3-1.3s-0.5-1.4-0.5-2.2v-2.3c0-0.9,0.1-1.6,0.4-2.2c0.3-0.6,0.7-1.1,1.2-1.4
		c0.5-0.3,1.2-0.5,2-0.5c0.7,0,1.4,0.2,1.9,0.5s0.9,0.8,1.2,1.5c0.3,0.7,0.4,1.4,0.4,2.3v0.9c0,0.4-0.3,0.8-0.8,0.8h-4.2
		c-0.4,0-0.8-0.3-0.8-0.8l0,0c0-0.4,0.3-0.8,0.8-0.8h3.2v-0.6c0-0.7-0.2-1.2-0.5-1.6c-0.3-0.4-0.7-0.6-1.2-0.6c-0.6,0-1,0.2-1.3,0.6
		c-0.3,0.4-0.5,1-0.5,1.7V58c0,0.7,0.2,1.2,0.5,1.5c0.3,0.4,0.8,0.5,1.4,0.5c0.4,0,0.7-0.1,1-0.3s0.4-0.5,0.6-0.8l1,0.3
		c0.4,0.1,0.7,0.7,0.5,1.1c-0.2,0.4-0.5,0.7-0.8,0.9c-0.6,0.4-1.3,0.6-2.2,0.6C87.5,61.9,86.8,61.8,86.3,61.5z"/>
	<path class="st0" d="M94.5,61.2C94,60.7,93.7,60,93.7,59c0-1.1,0.3-1.9,0.8-2.4s1.4-0.8,2.5-0.8h1.4c0.4,0,0.8,0.3,0.8,0.7l0,0
		c0,0.5-0.3,0.9-0.8,0.9H97c-0.5,0-0.8,0.1-1.1,0.4c-0.2,0.3-0.4,0.7-0.4,1.2s0.1,0.8,0.4,1s0.7,0.3,1.2,0.3c0.6,0,1.1-0.1,1.4-0.3
		s0.4-0.5,0.4-1l0.2,1.2c-0.1,0.4-0.2,0.7-0.4,1s-0.5,0.5-0.8,0.6S97.2,62,96.8,62C95.8,61.9,95,61.7,94.5,61.2z M99,54.9
		c0-0.5-0.1-1-0.4-1.2s-0.7-0.4-1.2-0.4c-0.4,0-0.7,0.1-1,0.3s-0.5,0.4-0.7,0.7l-0.8-0.2c-0.5-0.2-0.7-0.8-0.4-1.2
		c0.2-0.2,0.4-0.5,0.7-0.7c0.6-0.4,1.3-0.6,2.1-0.6c0.7,0,1.4,0.1,1.9,0.4s0.9,0.6,1.2,1.1s0.4,1.1,0.4,1.8v6.2
		c0,0.4-0.3,0.8-0.8,0.8h-0.3c-0.4,0-0.8-0.3-0.8-0.8C99,61,99,54.9,99,54.9z"/>
	<path class="st0" d="M103.5,53.8h2.9c0.4,0,0.8,0.3,0.8,0.6v0.2c0,0.3-0.3,0.6-0.8,0.6h-2.9c-0.4,0-0.8-0.3-0.8-0.6v-0.2
		C102.7,54.1,103,53.8,103.5,53.8z M104.3,61.3c-0.4-0.3-0.6-0.9-0.6-1.6v-7.6c0-0.3,0.3-0.6,0.8-0.6h0.3c0.4,0,0.8,0.3,0.8,0.6v7.6
		c0,0.2,0.1,0.4,0.2,0.5s0.3,0.2,0.5,0.2h0.8v1.4H106C105.3,61.8,104.7,61.7,104.3,61.3z"/>
	<path class="st0" d="M111.8,48.9c0,0.1,0,0.2,0,0.2c0,0.2,0,0.4,0,0.7s0,0.7,0,1v10.4c0,0.4-0.4,0.7-1,0.7h-0.4c-0.5,0-1-0.3-1-0.7
		V50.8c0-0.1-0.1-1,0.7-1.6C110.9,48.7,111.7,48.9,111.8,48.9z M114.7,57.1c0-0.5-0.1-0.8-0.4-1s-0.7-0.3-1.2-0.3s-0.9,0.1-1.2,0.3
		s-0.4,0.5-0.4,1l-0.2-1.1c0-0.1,0-0.2,0.1-0.3c0.3-0.4,0.6-0.7,1-0.9s1-0.3,1.5-0.3c0.9,0,1.6,0.2,2.1,0.7s0.7,1,0.7,1.8v4.4
		c0,0.3-0.3,0.6-0.8,0.6h-0.4c-0.4,0-0.8-0.3-0.8-0.6V57.1z"/>
	<path class="st0" d="M120.6,61.5c-0.6-0.3-1-0.8-1.3-1.3c-0.3-0.6-0.4-1.3-0.4-2.1v-2.3c0-0.9,0.1-1.6,0.4-2.2
		c0.3-0.6,0.7-1.1,1.2-1.4c0.5-0.3,1.2-0.5,2-0.5c0.7,0,1.4,0.2,1.9,0.5s0.9,0.8,1.2,1.5s0.4,1.4,0.4,2.3v0.9c0,0.4-0.4,0.8-0.8,0.8
		H121c-0.4,0-0.8-0.3-0.8-0.8l0,0c0-0.4,0.3-0.8,0.8-0.8h3.2v-0.6c0-0.7-0.2-1.2-0.5-1.6s-0.7-0.7-1.2-0.7c-0.6,0-1,0.2-1.3,0.6
		c-0.3,0.4-0.5,1-0.5,1.7V58c0,0.7,0.2,1.2,0.5,1.5s0.8,0.5,1.4,0.5c0.4,0,0.7-0.1,1-0.3s0.4-0.5,0.6-0.8l1,0.3
		c0.4,0.1,0.7,0.7,0.5,1.1c-0.2,0.4-0.5,0.7-0.8,0.9c-0.6,0.4-1.3,0.6-2.2,0.6C121.8,61.9,121.1,61.8,120.6,61.5z"/>
	<path class="st0" d="M129.2,51.7h0.3c0.4,0,0.8,0.3,0.8,0.8V61c0,0.4-0.4,0.8-0.8,0.8h-0.3c-0.4,0-0.8-0.3-0.8-0.8v-8.5
		C128.4,52,128.7,51.7,129.2,51.7z M133.1,53.4c-0.2,0-0.4-0.1-0.6-0.1c-0.7,0-1.2,0.2-1.6,0.5s-0.6,0.9-0.6,1.5l-0.2-1.7
		c0-0.2,0-0.3,0.1-0.5c0.3-0.5,0.7-0.9,1.1-1.2c0.5-0.3,1.1-0.5,1.7-0.5c0.2,0,0.4,0,0.6,0.1s0.4,0.2,0.5,0.3l-0.6,1.8
		C133.4,53.6,133.2,53.5,133.1,53.4z"/>
	<path class="st1" d="M138.4,48.1h0.5c0.4,0,0.7,0.2,0.8,0.6l3.8,12.6c0.1,0.5-0.2,1-0.8,1h-0.4c-0.4,0-0.7-0.2-0.8-0.6l-2.1-7.9
		c-0.2-0.8-1.3-0.8-1.5,0l-2.1,7.9c-0.1,0.3-0.4,0.6-0.8,0.6h-0.4c-0.5,0-0.9-0.5-0.8-1l3.8-12.6C137.8,48.3,138.1,48.1,138.4,48.1z
		 M136.6,57.4h4.3c0.4,0,0.8,0.3,0.8,0.8v0.2c0,0.4-0.4,0.8-0.8,0.8h-4.3c-0.4,0-0.8-0.3-0.8-0.8v-0.2
		C135.9,57.7,136.2,57.4,136.6,57.4z"/>
	<path class="st1" d="M157,52.6h0.4c0.5,0,0.9,0.3,0.9,0.8v12.7c0,0.4-0.4,0.8-0.9,0.8H157c-0.5,0-0.9-0.3-0.9-0.8V53.4
		C156.1,52.9,156.5,52.6,157,52.6z M159.2,62.4c-0.4-0.3-0.8-0.6-1-1.1c-0.1-0.1-0.1-0.2-0.1-0.4l0.1-1.7c0,0.4,0.1,0.7,0.2,1
		s0.4,0.5,0.6,0.6s0.6,0.2,1,0.2c0.6,0,1.1-0.2,1.4-0.5c0.3-0.3,0.5-0.8,0.5-1.5v-3c0-0.6-0.2-1.1-0.5-1.5c-0.3-0.3-0.8-0.5-1.4-0.5
		c-0.4,0-0.7,0.1-1,0.2s-0.5,0.3-0.6,0.6s-0.2,0.6-0.2,1l-0.2-1.4c0-0.2,0-0.3,0.1-0.5c0.3-0.5,0.6-0.9,1.1-1.2s1.1-0.5,1.7-0.5
		c0.7,0,1.3,0.1,1.8,0.4s0.9,0.7,1.1,1.2c0.3,0.5,0.4,1.2,0.4,2v3.4c0,0.8-0.1,1.4-0.4,2c-0.3,0.5-0.7,1-1.2,1.3s-1.1,0.4-1.9,0.4
		C160.3,62.9,159.7,62.7,159.2,62.4z"/>
	<path class="st1" d="M68,60.9"/>
	<path class="st1" d="M146.6,52.6h0.4c0.5,0,0.9,0.3,0.9,0.8v12.7c0,0.4-0.4,0.8-0.9,0.8h-0.4c-0.5,0-0.9-0.3-0.9-0.8V53.4
		C145.7,52.9,146.1,52.6,146.6,52.6z M148.8,62.4c-0.4-0.3-0.8-0.6-1-1.1c-0.1-0.1-0.1-0.2-0.1-0.4l0.1-1.7c0,0.4,0.1,0.7,0.2,1
		s0.4,0.5,0.6,0.6s0.6,0.2,1,0.2c0.6,0,1.1-0.2,1.4-0.5c0.3-0.3,0.5-0.8,0.5-1.5v-3c0-0.6-0.2-1.1-0.5-1.5c-0.3-0.3-0.8-0.5-1.4-0.5
		c-0.4,0-0.7,0.1-1,0.2s-0.5,0.3-0.6,0.6s-0.2,0.6-0.2,1l-0.2-1.4c0-0.2,0-0.3,0.1-0.5c0.3-0.5,0.6-0.9,1.1-1.2s1.1-0.5,1.7-0.5
		c0.7,0,1.3,0.1,1.8,0.4s0.9,0.7,1.1,1.2c0.3,0.5,0.4,1.2,0.4,2v3.4c0,0.8-0.1,1.4-0.4,2c-0.3,0.5-0.7,1-1.2,1.3s-1.1,0.4-1.9,0.4
		C149.9,62.9,149.3,62.7,148.8,62.4z"/>
	<ellipse class="st2" cx="89.1" cy="46" rx="0.4" ry="0.8"/>
	<ellipse class="st2" cx="89.7" cy="49.4" rx="0.4" ry="0.8"/>
	<ellipse class="st2" cx="93.7" cy="46.4" rx="0.4" ry="0.8"/>
	<ellipse class="st2" cx="105.4" cy="46.3" rx="0.4" ry="0.8"/>
	<path class="st2" d="M97.7,46.1c0,0.4-0.1,0.8-0.4,0.8c-0.2,0.1-0.4-0.4-0.4-0.8c0-0.5,0.2-0.8,0.4-0.8
		C97.5,45.2,97.7,45.6,97.7,46.1z"/>
	<ellipse class="st2" cx="92.8" cy="49" rx="0.4" ry="0.8"/>
	<ellipse class="st2" cx="99.9" cy="49.6" rx="0.4" ry="0.8"/>
	<ellipse class="st2" cx="101.2" cy="46.9" rx="0.4" ry="0.8"/>
	<ellipse class="st2" cx="96" cy="49.1" rx="0.4" ry="0.8"/>
	<ellipse class="st2" cx="103.4" cy="49.4" rx="0.4" ry="0.8"/>
	<g>
		<path class="st3" d="M93.4,43.6"/>
	</g>
	<path class="st4" d="M104.1,32.4c-0.8-2.8-3.7-4.9-7.1-4.9c-3.6,0-6.6,2.3-7.2,5.2c-3.3,0.6-5.8,3.1-5.8,6.1c0,3.4,3.3,6.2,7.4,6.2
		c2,0,3.9-0.7,5.2-1.8c1.6,1,3.6,1.6,5.8,1.6c4.9,0,8.8-2.8,8.8-6.2C111.3,35.5,108.2,32.9,104.1,32.4z"/>
</g>
</svg>
